<svg width="137" height="62" viewBox="0 0 137 62" fill="none" xmlns="http://www.w3.org/2000/svg">
<rect width="137" height="62" rx="31" fill="#E3B748"/>
<path d="M33.1946 37V25.3636H35.3026V35.233H40.4276V37H33.1946ZM46.0298 37.1705C45.1548 37.1705 44.3991 36.9886 43.7628 36.625C43.1302 36.2576 42.6435 35.7386 42.3026 35.0682C41.9616 34.3939 41.7912 33.6004 41.7912 32.6875C41.7912 31.7898 41.9616 31.0019 42.3026 30.3239C42.6473 29.642 43.1283 29.1117 43.7457 28.733C44.3632 28.3504 45.0885 28.1591 45.9219 28.1591C46.4598 28.1591 46.9673 28.2462 47.4446 28.4205C47.9257 28.5909 48.3499 28.8561 48.7173 29.2159C49.0885 29.5758 49.3802 30.0341 49.5923 30.5909C49.8045 31.1439 49.9105 31.803 49.9105 32.5682V33.1989H42.7571V31.8125H47.9389C47.9351 31.4186 47.8499 31.0682 47.6832 30.7614C47.5166 30.4508 47.2836 30.2064 46.9844 30.0284C46.6889 29.8504 46.3442 29.7614 45.9503 29.7614C45.5298 29.7614 45.1605 29.8636 44.8423 30.0682C44.5241 30.2689 44.276 30.5341 44.098 30.8636C43.9238 31.1894 43.8348 31.5473 43.831 31.9375V33.1477C43.831 33.6553 43.9238 34.0909 44.1094 34.4545C44.295 34.8144 44.5545 35.0909 44.8878 35.2841C45.2211 35.4735 45.6113 35.5682 46.0582 35.5682C46.3575 35.5682 46.6283 35.5265 46.8707 35.4432C47.1132 35.3561 47.3234 35.2292 47.5014 35.0625C47.6795 34.8958 47.8139 34.6894 47.9048 34.4432L49.8253 34.6591C49.7041 35.1667 49.473 35.6098 49.1321 35.9886C48.795 36.3636 48.3632 36.6553 47.8366 36.8636C47.3101 37.0682 46.7079 37.1705 46.0298 37.1705ZM56.0085 28.2727V29.8636H50.9915V28.2727H56.0085ZM52.2301 26.1818H54.2869V34.375C54.2869 34.6515 54.3286 34.8636 54.4119 35.0114C54.4991 35.1553 54.6127 35.2538 54.7528 35.3068C54.893 35.3598 55.0483 35.3864 55.2188 35.3864C55.3475 35.3864 55.465 35.3769 55.571 35.358C55.6809 35.339 55.7642 35.322 55.821 35.3068L56.1676 36.9148C56.0578 36.9527 55.9006 36.9943 55.696 37.0398C55.4953 37.0852 55.2491 37.1117 54.9574 37.1193C54.4422 37.1345 53.9782 37.0568 53.5653 36.8864C53.1525 36.7121 52.8248 36.4432 52.5824 36.0795C52.3438 35.7159 52.2263 35.2614 52.2301 34.7159V26.1818ZM59.8793 25.3636V26.5227C59.8793 26.8561 59.8149 27.2027 59.6861 27.5625C59.5611 27.9186 59.3887 28.2595 59.169 28.5852C58.9493 28.9072 58.6993 29.1837 58.419 29.4148L57.4645 28.7955C57.6728 28.4811 57.8546 28.142 58.0099 27.7784C58.1652 27.411 58.2429 26.9962 58.2429 26.5341V25.3636H59.8793ZM67.3139 30.5795L65.4389 30.7841C65.3859 30.5947 65.2931 30.4167 65.1605 30.25C65.0317 30.0833 64.8575 29.9489 64.6378 29.8466C64.4181 29.7443 64.1491 29.6932 63.831 29.6932C63.4029 29.6932 63.0431 29.786 62.7514 29.9716C62.4635 30.1572 62.3215 30.3977 62.3253 30.6932C62.3215 30.947 62.4143 31.1534 62.6037 31.3125C62.7969 31.4716 63.1151 31.6023 63.5582 31.7045L65.0469 32.0227C65.8726 32.2008 66.4863 32.483 66.8878 32.8693C67.2931 33.2557 67.4976 33.7614 67.5014 34.3864C67.4976 34.9356 67.3366 35.4205 67.0185 35.8409C66.7041 36.2576 66.2666 36.5833 65.706 36.8182C65.1454 37.053 64.5014 37.1705 63.7741 37.1705C62.706 37.1705 61.8461 36.947 61.1946 36.5C60.5431 36.0492 60.1548 35.4223 60.0298 34.6193L62.0355 34.4261C62.1264 34.8201 62.3196 35.1174 62.6151 35.3182C62.9105 35.5189 63.295 35.6193 63.7685 35.6193C64.2571 35.6193 64.6491 35.5189 64.9446 35.3182C65.2438 35.1174 65.3935 34.8693 65.3935 34.5739C65.3935 34.3239 65.2969 34.1174 65.1037 33.9545C64.9143 33.7917 64.6188 33.6667 64.2173 33.5795L62.7287 33.267C61.8916 33.0928 61.2723 32.7992 60.8707 32.3864C60.4692 31.9697 60.2704 31.4432 60.2741 30.8068C60.2704 30.2689 60.4162 29.803 60.7116 29.4091C61.0109 29.0114 61.4257 28.7045 61.956 28.4886C62.4901 28.2689 63.1056 28.1591 63.8026 28.1591C64.8253 28.1591 65.6302 28.3769 66.2173 28.8125C66.8082 29.2481 67.1738 29.8371 67.3139 30.5795ZM72.7457 27.1307V25.3636H82.0298V27.1307H78.4332V37H76.3423V27.1307H72.7457ZM85.0526 37.1761C84.4995 37.1761 84.0014 37.0777 83.5582 36.8807C83.1188 36.6799 82.7704 36.3845 82.5128 35.9943C82.259 35.6042 82.1321 35.1231 82.1321 34.5511C82.1321 34.0587 82.223 33.6515 82.4048 33.3295C82.5866 33.0076 82.8348 32.75 83.1491 32.5568C83.4635 32.3636 83.8177 32.2178 84.2116 32.1193C84.6094 32.017 85.0204 31.9432 85.4446 31.8977C85.956 31.8447 86.3707 31.7973 86.6889 31.7557C87.0071 31.7102 87.2382 31.642 87.3821 31.5511C87.5298 31.4564 87.6037 31.3106 87.6037 31.1136V31.0795C87.6037 30.6515 87.4768 30.3201 87.223 30.0852C86.9692 29.8504 86.6037 29.733 86.1264 29.733C85.6226 29.733 85.223 29.8428 84.9276 30.0625C84.6359 30.2822 84.4389 30.5417 84.3366 30.8409L82.4162 30.5682C82.5677 30.0379 82.8177 29.5947 83.1662 29.2386C83.5147 28.8788 83.9408 28.6098 84.4446 28.4318C84.9484 28.25 85.5052 28.1591 86.1151 28.1591C86.5355 28.1591 86.9541 28.2083 87.3707 28.3068C87.7874 28.4053 88.1681 28.5682 88.5128 28.7955C88.8575 29.0189 89.134 29.3239 89.3423 29.7102C89.5545 30.0966 89.6605 30.5795 89.6605 31.1591V37H87.6832V35.8011H87.6151C87.4901 36.0436 87.3139 36.2708 87.0866 36.483C86.8632 36.6913 86.581 36.8598 86.2401 36.9886C85.9029 37.1136 85.5071 37.1761 85.0526 37.1761ZM85.5866 35.6648C85.9995 35.6648 86.3575 35.5833 86.6605 35.4205C86.9635 35.2538 87.1965 35.0341 87.3594 34.7614C87.526 34.4886 87.6094 34.1913 87.6094 33.8693V32.8409C87.545 32.8939 87.4351 32.9432 87.2798 32.9886C87.1283 33.0341 86.9579 33.0739 86.7685 33.108C86.5791 33.142 86.3916 33.1723 86.206 33.1989C86.0204 33.2254 85.8594 33.2481 85.723 33.267C85.4162 33.3087 85.1416 33.3769 84.8991 33.4716C84.6567 33.5663 84.4654 33.6989 84.3253 33.8693C84.1851 34.036 84.1151 34.2519 84.1151 34.517C84.1151 34.8958 84.2533 35.1818 84.5298 35.375C84.8063 35.5682 85.1586 35.6648 85.5866 35.6648ZM93.7855 25.3636V37H91.7287V25.3636H93.7855ZM97.7756 34.2614L97.7699 31.7784H98.0994L101.236 28.2727H103.639L99.7812 32.5682H99.3551L97.7756 34.2614ZM95.9006 37V25.3636H97.9574V37H95.9006ZM101.378 37L98.5369 33.0284L99.9233 31.5795L103.838 37H101.378Z" fill="black"/>
</svg>
